<mxfile host="app.diagrams.net" modified="2022-06-17T16:41:35.791Z" agent="5.0 (Macintosh; Intel Mac OS X 10_15_7) AppleWebKit/537.36 (KHTML, like Gecko) Chrome/102.0.0.0 Safari/537.36" etag="WtoBh69dgiOiOIJXTEzR" version="20.0.1" type="github">
  <diagram id="l8W7BqlXp2JC7-8E_qWu" name="第 1 页">
    <mxGraphModel dx="1298" dy="834" grid="0" gridSize="10" guides="1" tooltips="1" connect="1" arrows="1" fold="1" page="1" pageScale="1" pageWidth="10000" pageHeight="10000" math="0" shadow="0">
      <root>
        <mxCell id="0" />
        <mxCell id="1" parent="0" />
        <mxCell id="k3yPks6LkGwuZvzF4upD-2" value="" style="rounded=0;whiteSpace=wrap;html=1;fillColor=#d5e8d4;strokeColor=#82b366;gradientColor=#97d077;" vertex="1" parent="1">
          <mxGeometry x="138" y="164" width="778" height="479" as="geometry" />
        </mxCell>
        <mxCell id="k3yPks6LkGwuZvzF4upD-4" value="" style="rounded=1;whiteSpace=wrap;html=1;fillColor=#fff2cc;strokeColor=#d6b656;" vertex="1" parent="1">
          <mxGeometry x="210" y="291" width="604.25" height="269" as="geometry" />
        </mxCell>
        <mxCell id="k3yPks6LkGwuZvzF4upD-5" value="web服务" style="rounded=1;whiteSpace=wrap;html=1;fillColor=#b0e3e6;strokeColor=#0e8088;" vertex="1" parent="1">
          <mxGeometry x="233" y="391" width="118" height="60" as="geometry" />
        </mxCell>
        <mxCell id="k3yPks6LkGwuZvzF4upD-6" value="文件服务" style="rounded=1;whiteSpace=wrap;html=1;fillColor=#d0cee2;strokeColor=#56517e;" vertex="1" parent="1">
          <mxGeometry x="511" y="388" width="120" height="60" as="geometry" />
        </mxCell>
        <mxCell id="k3yPks6LkGwuZvzF4upD-7" value="数据库服务" style="rounded=1;whiteSpace=wrap;html=1;fillColor=#fad9d5;strokeColor=#ae4132;" vertex="1" parent="1">
          <mxGeometry x="371" y="391" width="120" height="60" as="geometry" />
        </mxCell>
        <mxCell id="k3yPks6LkGwuZvzF4upD-8" value="缓存服务" style="rounded=1;whiteSpace=wrap;html=1;fillColor=#d5e8d4;strokeColor=#82b366;" vertex="1" parent="1">
          <mxGeometry x="654" y="388" width="120" height="60" as="geometry" />
        </mxCell>
        <mxCell id="k3yPks6LkGwuZvzF4upD-9" value="业务系统（单台服务器" style="text;html=1;strokeColor=none;fillColor=none;align=center;verticalAlign=middle;whiteSpace=wrap;rounded=0;" vertex="1" parent="1">
          <mxGeometry x="436" y="259" width="135" height="26" as="geometry" />
        </mxCell>
        <mxCell id="k3yPks6LkGwuZvzF4upD-10" value="&lt;b&gt;&lt;font style=&quot;font-size: 18px;&quot;&gt;单服务器模式架构&lt;/font&gt;&lt;/b&gt;" style="text;html=1;strokeColor=none;fillColor=none;align=center;verticalAlign=middle;whiteSpace=wrap;rounded=0;" vertex="1" parent="1">
          <mxGeometry x="415" y="211" width="189" height="26" as="geometry" />
        </mxCell>
      </root>
    </mxGraphModel>
  </diagram>
</mxfile>
